<svg xmlns="http://www.w3.org/2000/svg" xmlns:xlink="http://www.w3.org/1999/xlink" width="400" zoomAndPan="magnify" viewBox="0 0 300 74.999997" height="100" preserveAspectRatio="xMidYMid meet" version="1.0"><defs><g/><clipPath id="2da9676f2d"><path d="M 21.332031 18.261719 L 64.832031 18.261719 L 64.832031 60.261719 L 21.332031 60.261719 Z M 21.332031 18.261719 " clip-rule="nonzero"/></clipPath></defs><g clip-path="url(#2da9676f2d)"><path fill="#4d7feb" d="M 60.445312 60.164062 C 60.765625 60.167969 61.082031 60.128906 61.398438 60.058594 C 61.710938 59.984375 62.011719 59.875 62.300781 59.730469 C 62.589844 59.589844 62.859375 59.414062 63.105469 59.207031 C 63.355469 59.003906 63.578125 58.769531 63.769531 58.515625 C 63.964844 58.257812 64.128906 57.980469 64.257812 57.6875 C 64.386719 57.390625 64.484375 57.085938 64.542969 56.769531 C 64.601562 56.453125 64.625 56.132812 64.609375 55.808594 C 64.59375 55.488281 64.539062 55.171875 64.453125 54.863281 C 64.363281 54.550781 64.242188 54.257812 64.082031 53.976562 C 63.925781 53.695312 63.738281 53.433594 63.519531 53.195312 C 63.304688 52.960938 63.0625 52.75 62.792969 52.566406 C 62.527344 52.386719 62.242188 52.238281 61.941406 52.121094 C 61.640625 52.007812 61.332031 51.929688 61.011719 51.882812 C 60.691406 51.839844 60.371094 51.835938 60.050781 51.867188 C 59.730469 51.898438 59.417969 51.964844 59.113281 52.070312 C 58.808594 52.171875 58.519531 52.308594 58.246094 52.480469 L 48.5625 42.78125 C 48.84375 42.421875 49.089844 42.039062 49.300781 41.636719 C 49.515625 41.230469 49.6875 40.8125 49.824219 40.375 C 49.960938 39.941406 50.054688 39.496094 50.109375 39.042969 C 50.167969 38.589844 50.179688 38.136719 50.152344 37.679688 C 50.125 37.222656 50.058594 36.773438 49.949219 36.332031 C 49.839844 35.886719 49.691406 35.457031 49.507812 35.042969 C 49.320312 34.625 49.097656 34.230469 48.839844 33.851562 C 48.582031 33.476562 48.289062 33.128906 47.96875 32.804688 L 52.25 27.332031 C 52.554688 27.476562 52.875 27.582031 53.207031 27.648438 C 53.539062 27.714844 53.875 27.738281 54.210938 27.722656 C 54.550781 27.707031 54.882812 27.648438 55.207031 27.550781 C 55.53125 27.457031 55.839844 27.320312 56.132812 27.148438 C 56.421875 26.976562 56.6875 26.769531 56.929688 26.535156 C 57.171875 26.296875 57.382812 26.035156 57.558594 25.746094 C 57.738281 25.457031 57.875 25.152344 57.980469 24.828125 C 58.082031 24.507812 58.144531 24.175781 58.167969 23.839844 C 58.1875 23.5 58.171875 23.164062 58.109375 22.832031 C 58.050781 22.496094 57.953125 22.175781 57.8125 21.867188 C 57.675781 21.558594 57.503906 21.269531 57.292969 21.003906 C 57.085938 20.738281 56.847656 20.5 56.582031 20.289062 C 56.316406 20.082031 56.027344 19.90625 55.71875 19.769531 C 55.410156 19.628906 55.089844 19.53125 54.753906 19.46875 C 54.421875 19.410156 54.085938 19.390625 53.75 19.410156 C 53.410156 19.433594 53.078125 19.496094 52.757812 19.597656 C 52.433594 19.699219 52.128906 19.839844 51.839844 20.015625 C 51.550781 20.195312 51.289062 20.402344 51.050781 20.644531 C 50.8125 20.886719 50.605469 21.152344 50.433594 21.441406 C 50.261719 21.734375 50.125 22.042969 50.027344 22.367188 C 49.933594 22.691406 49.875 23.019531 49.859375 23.359375 C 49.839844 23.699219 49.867188 24.03125 49.929688 24.367188 C 49.996094 24.699219 50.101562 25.015625 50.242188 25.324219 C 50.386719 25.632812 50.5625 25.917969 50.777344 26.179688 L 46.492188 31.648438 C 45.839844 31.257812 45.144531 30.96875 44.402344 30.789062 C 43.664062 30.605469 42.914062 30.539062 42.15625 30.582031 C 41.394531 30.628906 40.660156 30.785156 39.945312 31.054688 C 39.234375 31.320312 38.578125 31.6875 37.976562 32.15625 L 31.011719 25.144531 C 31.191406 24.859375 31.335938 24.554688 31.441406 24.230469 C 31.546875 23.90625 31.613281 23.578125 31.640625 23.238281 C 31.664062 22.898438 31.648438 22.5625 31.59375 22.226562 C 31.539062 21.894531 31.441406 21.570312 31.304688 21.257812 C 31.171875 20.945312 31 20.65625 30.792969 20.386719 C 30.585938 20.117188 30.351562 19.875 30.085938 19.664062 C 29.820312 19.453125 29.535156 19.273438 29.226562 19.132812 C 28.917969 18.988281 28.597656 18.886719 28.261719 18.824219 C 27.929688 18.757812 27.59375 18.734375 27.253906 18.753906 C 26.914062 18.773438 26.582031 18.832031 26.257812 18.929688 C 25.933594 19.03125 25.625 19.167969 25.332031 19.34375 C 25.042969 19.515625 24.777344 19.722656 24.535156 19.964844 C 24.292969 20.203125 24.085938 20.46875 23.910156 20.757812 C 23.734375 21.046875 23.59375 21.355469 23.496094 21.679688 C 23.394531 22.003906 23.332031 22.335938 23.3125 22.675781 C 23.292969 23.015625 23.3125 23.351562 23.375 23.683594 C 23.4375 24.019531 23.539062 24.339844 23.679688 24.648438 C 23.820312 24.957031 23.996094 25.246094 24.207031 25.511719 C 24.417969 25.777344 24.65625 26.015625 24.925781 26.222656 C 25.195312 26.429688 25.484375 26.601562 25.796875 26.742188 C 26.105469 26.878906 26.429688 26.976562 26.761719 27.035156 C 27.097656 27.089844 27.433594 27.109375 27.773438 27.085938 C 28.113281 27.0625 28.441406 26.996094 28.765625 26.890625 C 29.089844 26.785156 29.394531 26.644531 29.683594 26.464844 L 36.648438 33.472656 C 35.921875 34.398438 35.4375 35.4375 35.199219 36.589844 C 34.957031 37.742188 34.984375 38.886719 35.277344 40.027344 L 29.328125 42.390625 C 29.140625 42.121094 28.921875 41.875 28.675781 41.660156 C 28.429688 41.441406 28.164062 41.253906 27.871094 41.097656 C 27.582031 40.945312 27.277344 40.824219 26.960938 40.742188 C 26.640625 40.660156 26.316406 40.617188 25.988281 40.609375 C 25.660156 40.605469 25.335938 40.640625 25.015625 40.710938 C 24.691406 40.78125 24.382812 40.890625 24.089844 41.035156 C 23.792969 41.179688 23.519531 41.359375 23.265625 41.566406 C 23.015625 41.777344 22.789062 42.015625 22.59375 42.277344 C 22.394531 42.542969 22.230469 42.824219 22.101562 43.128906 C 21.972656 43.429688 21.882812 43.742188 21.824219 44.066406 C 21.769531 44.390625 21.753906 44.71875 21.777344 45.046875 C 21.800781 45.375 21.859375 45.695312 21.957031 46.007812 C 22.058594 46.324219 22.191406 46.621094 22.359375 46.902344 C 22.53125 47.183594 22.730469 47.441406 22.960938 47.675781 C 23.191406 47.910156 23.445312 48.113281 23.726562 48.289062 C 24.003906 48.460938 24.300781 48.601562 24.613281 48.703125 C 24.925781 48.808594 25.246094 48.875 25.574219 48.902344 C 25.902344 48.929688 26.226562 48.917969 26.550781 48.867188 C 26.878906 48.816406 27.191406 48.730469 27.496094 48.605469 C 27.800781 48.480469 28.085938 48.320312 28.351562 48.128906 C 28.621094 47.933594 28.859375 47.714844 29.074219 47.464844 C 29.289062 47.214844 29.46875 46.941406 29.617188 46.648438 C 29.769531 46.355469 29.878906 46.050781 29.957031 45.730469 C 30.035156 45.410156 30.070312 45.085938 30.070312 44.757812 C 30.070312 44.546875 30.050781 44.339844 30.019531 44.132812 L 35.96875 41.769531 C 36.234375 42.25 36.542969 42.695312 36.902344 43.105469 C 37.261719 43.519531 37.660156 43.890625 38.101562 44.214844 C 38.542969 44.539062 39.011719 44.816406 39.511719 45.039062 C 40.007812 45.261719 40.527344 45.429688 41.0625 45.542969 C 41.597656 45.652344 42.140625 45.707031 42.6875 45.699219 C 43.234375 45.691406 43.773438 45.628906 44.308594 45.503906 C 44.839844 45.378906 45.355469 45.199219 45.847656 44.964844 C 46.34375 44.730469 46.804688 44.445312 47.238281 44.109375 L 56.921875 53.808594 C 56.519531 54.449219 56.308594 55.144531 56.285156 55.902344 C 56.265625 56.65625 56.4375 57.367188 56.804688 58.027344 C 57.171875 58.6875 57.679688 59.210938 58.332031 59.59375 C 58.984375 59.976562 59.6875 60.167969 60.445312 60.167969 Z M 25.914062 47.058594 C 25.609375 47.058594 25.316406 47 25.039062 46.882812 C 24.757812 46.769531 24.511719 46.605469 24.296875 46.390625 C 24.082031 46.175781 23.917969 45.929688 23.800781 45.648438 C 23.683594 45.371094 23.625 45.078125 23.625 44.777344 C 23.625 44.472656 23.683594 44.179688 23.796875 43.902344 C 23.914062 43.621094 24.078125 43.375 24.289062 43.160156 C 24.503906 42.945312 24.75 42.777344 25.03125 42.660156 C 25.308594 42.542969 25.601562 42.484375 25.902344 42.484375 C 26.207031 42.484375 26.496094 42.539062 26.777344 42.65625 C 27.058594 42.769531 27.304688 42.933594 27.519531 43.144531 C 27.738281 43.359375 27.902344 43.605469 28.019531 43.882812 C 28.136719 44.164062 28.199219 44.453125 28.199219 44.757812 C 28.199219 45.0625 28.140625 45.351562 28.027344 45.632812 C 27.910156 45.914062 27.746094 46.164062 27.53125 46.378906 C 27.316406 46.59375 27.070312 46.757812 26.789062 46.875 C 26.507812 46.992188 26.214844 47.050781 25.914062 47.050781 Z M 62.730469 56.011719 C 62.730469 56.316406 62.671875 56.609375 62.558594 56.886719 C 62.441406 57.167969 62.277344 57.417969 62.0625 57.632812 C 61.847656 57.847656 61.601562 58.011719 61.320312 58.128906 C 61.039062 58.242188 60.75 58.300781 60.445312 58.300781 C 60.140625 58.300781 59.851562 58.246094 59.570312 58.128906 C 59.289062 58.011719 59.042969 57.847656 58.828125 57.632812 C 58.613281 57.417969 58.445312 57.171875 58.332031 56.890625 C 58.214844 56.609375 58.15625 56.320312 58.15625 56.015625 C 58.15625 55.714844 58.214844 55.421875 58.332031 55.140625 C 58.445312 54.859375 58.613281 54.613281 58.824219 54.398438 C 59.039062 54.183594 59.289062 54.019531 59.566406 53.902344 C 59.847656 53.785156 60.140625 53.730469 60.445312 53.730469 C 60.746094 53.730469 61.035156 53.785156 61.316406 53.902344 C 61.59375 54.019531 61.84375 54.183594 62.054688 54.394531 C 62.269531 54.609375 62.4375 54.855469 62.554688 55.132812 C 62.667969 55.414062 62.730469 55.703125 62.730469 56.007812 Z M 54 21.28125 C 54.304688 21.28125 54.59375 21.339844 54.875 21.453125 C 55.15625 21.570312 55.402344 21.734375 55.617188 21.949219 C 55.832031 22.164062 55.996094 22.414062 56.113281 22.691406 C 56.226562 22.972656 56.285156 23.265625 56.285156 23.566406 C 56.285156 23.871094 56.226562 24.164062 56.113281 24.441406 C 55.996094 24.722656 55.832031 24.96875 55.617188 25.183594 C 55.402344 25.398438 55.15625 25.5625 54.875 25.679688 C 54.59375 25.796875 54.304688 25.855469 54 25.855469 C 53.695312 25.855469 53.40625 25.796875 53.125 25.679688 C 52.84375 25.5625 52.597656 25.398438 52.382812 25.183594 C 52.167969 24.96875 52.003906 24.722656 51.886719 24.441406 C 51.769531 24.164062 51.714844 23.871094 51.714844 23.566406 C 51.714844 23.265625 51.773438 22.972656 51.886719 22.691406 C 52.003906 22.414062 52.167969 22.167969 52.382812 21.953125 C 52.597656 21.738281 52.84375 21.574219 53.125 21.457031 C 53.40625 21.339844 53.695312 21.28125 54 21.28125 Z M 25.210938 22.9375 C 25.210938 22.632812 25.269531 22.339844 25.382812 22.058594 C 25.5 21.78125 25.664062 21.53125 25.878906 21.320312 C 26.09375 21.105469 26.339844 20.9375 26.621094 20.824219 C 26.902344 20.707031 27.195312 20.648438 27.496094 20.648438 C 27.800781 20.648438 28.09375 20.707031 28.371094 20.824219 C 28.652344 20.9375 28.898438 21.105469 29.113281 21.320312 C 29.328125 21.53125 29.492188 21.78125 29.609375 22.058594 C 29.726562 22.339844 29.785156 22.632812 29.785156 22.9375 C 29.785156 23.238281 29.726562 23.53125 29.609375 23.8125 C 29.492188 24.089844 29.328125 24.339844 29.113281 24.550781 C 28.898438 24.765625 28.652344 24.933594 28.371094 25.046875 C 28.09375 25.164062 27.800781 25.222656 27.496094 25.222656 C 27.195312 25.222656 26.902344 25.164062 26.621094 25.046875 C 26.339844 24.933594 26.09375 24.765625 25.878906 24.554688 C 25.664062 24.339844 25.5 24.089844 25.382812 23.8125 C 25.265625 23.53125 25.207031 23.238281 25.207031 22.9375 Z M 36.914062 38.132812 C 36.914062 37.757812 36.949219 37.390625 37.023438 37.023438 C 37.09375 36.65625 37.203125 36.300781 37.34375 35.953125 C 37.488281 35.609375 37.664062 35.28125 37.871094 34.96875 C 38.078125 34.65625 38.3125 34.371094 38.578125 34.105469 C 38.84375 33.839844 39.128906 33.605469 39.441406 33.398438 C 39.75 33.1875 40.078125 33.011719 40.425781 32.871094 C 40.769531 32.726562 41.125 32.617188 41.492188 32.546875 C 41.859375 32.472656 42.230469 32.4375 42.605469 32.4375 C 42.976562 32.4375 43.347656 32.472656 43.714844 32.546875 C 44.082031 32.617188 44.4375 32.726562 44.785156 32.871094 C 45.128906 33.011719 45.457031 33.1875 45.769531 33.394531 C 46.078125 33.601562 46.367188 33.839844 46.628906 34.101562 C 46.894531 34.367188 47.132812 34.65625 47.339844 34.964844 C 47.546875 35.277344 47.722656 35.605469 47.863281 35.949219 C 48.007812 36.296875 48.117188 36.652344 48.1875 37.019531 C 48.261719 37.386719 48.296875 37.757812 48.296875 38.128906 C 48.296875 38.503906 48.261719 38.875 48.1875 39.242188 C 48.113281 39.609375 48.007812 39.964844 47.863281 40.308594 C 47.71875 40.65625 47.546875 40.984375 47.335938 41.292969 C 47.128906 41.605469 46.894531 41.890625 46.628906 42.15625 C 46.363281 42.421875 46.078125 42.65625 45.765625 42.863281 C 45.453125 43.070312 45.125 43.246094 44.78125 43.390625 C 44.433594 43.53125 44.078125 43.640625 43.710938 43.710938 C 43.34375 43.785156 42.976562 43.820312 42.601562 43.820312 C 42.226562 43.820312 41.859375 43.785156 41.492188 43.710938 C 41.125 43.636719 40.769531 43.527344 40.425781 43.386719 C 40.078125 43.242188 39.753906 43.066406 39.441406 42.859375 C 39.132812 42.652344 38.84375 42.417969 38.578125 42.152344 C 38.316406 41.890625 38.078125 41.601562 37.871094 41.292969 C 37.664062 40.980469 37.488281 40.652344 37.34375 40.308594 C 37.203125 39.964844 37.09375 39.609375 37.019531 39.242188 C 36.945312 38.875 36.910156 38.507812 36.910156 38.132812 Z M 36.914062 38.132812 " fill-opacity="1" fill-rule="nonzero"/></g><g fill="#4d7feb" fill-opacity="1"><g transform="translate(58.534642, 53.415998)"><g><path d="M 24.328125 -3.5625 C 21.253906 -0.851562 18.023438 0.5 14.640625 0.5 C 12.640625 0.5 10.71875 0.0078125 8.875 -0.96875 C 7.039062 -1.957031 5.488281 -3.335938 4.21875 -5.109375 C 2.070312 -8.085938 1 -11.800781 1 -16.25 C 1 -19.53125 1.523438 -22.460938 2.578125 -25.046875 C 3.628906 -27.640625 5.109375 -29.707031 7.015625 -31.25 C 8.085938 -32.113281 9.257812 -32.78125 10.53125 -33.25 C 11.800781 -33.71875 13.070312 -33.953125 14.34375 -33.953125 C 14.8125 -33.953125 15.257812 -33.914062 15.6875 -33.84375 C 16.125 -33.78125 16.695312 -33.664062 17.40625 -33.5 L 17.90625 -34.5625 L 24.625 -31.453125 L 20.859375 -21.46875 C 19.992188 -22.632812 19.148438 -23.476562 18.328125 -24 C 17.515625 -24.519531 16.570312 -24.78125 15.5 -24.78125 C 12.1875 -24.78125 10.53125 -22.054688 10.53125 -16.609375 C 10.53125 -13.992188 10.929688 -11.96875 11.734375 -10.53125 C 12.535156 -9.09375 13.65625 -8.375 15.09375 -8.375 C 17.164062 -8.375 19.085938 -9.847656 20.859375 -12.796875 Z M 24.328125 -3.5625 "/></g></g></g><g fill="#4d7feb" fill-opacity="1"><g transform="translate(83.461704, 53.415998)"><g><path d="M 2.109375 -26.078125 L 0.25 -26.078125 L 2.109375 -34.25 L 10.328125 -34.25 L 10.328125 -8.03125 L 12.09375 -8.03125 L 10.328125 0 L 2.109375 0 Z M 2.109375 -26.078125 "/></g></g></g><g fill="#4d7feb" fill-opacity="1"><g transform="translate(95.799848, 53.415998)"><g><path d="M 10.53125 -0.09375 C 8.988281 -0.164062 7.804688 -0.328125 6.984375 -0.578125 C 6.171875 -0.828125 5.398438 -1.285156 4.671875 -1.953125 C 3.429688 -3.054688 2.492188 -4.492188 1.859375 -6.265625 C 1.222656 -8.035156 0.90625 -10.078125 0.90625 -12.390625 C 0.90625 -14.222656 1.117188 -15.890625 1.546875 -17.390625 C 1.984375 -18.898438 2.601562 -20.191406 3.40625 -21.265625 C 4.207031 -22.335938 5.1875 -23.15625 6.34375 -23.71875 C 7.5 -24.289062 8.78125 -24.578125 10.1875 -24.578125 C 10.945312 -24.578125 11.632812 -24.492188 12.25 -24.328125 C 12.875 -24.160156 13.519531 -23.890625 14.1875 -23.515625 L 14.1875 -24.421875 L 22.125 -24.421875 L 22.125 -8.03125 L 23.875 -8.03125 L 22.125 0 L 13.890625 0 L 13.890625 -7.375 L 12.234375 0 Z M 13.890625 -12.734375 C 13.890625 -13.335938 13.878906 -13.832031 13.859375 -14.21875 C 13.847656 -14.601562 13.816406 -14.921875 13.765625 -15.171875 C 13.710938 -15.421875 13.648438 -15.617188 13.578125 -15.765625 C 13.515625 -15.921875 13.421875 -16.066406 13.296875 -16.203125 C 12.921875 -16.597656 12.46875 -16.796875 11.9375 -16.796875 C 11.164062 -16.796875 10.546875 -16.398438 10.078125 -15.609375 C 9.609375 -14.828125 9.375 -13.804688 9.375 -12.546875 C 9.375 -9.492188 10.5625 -7.96875 12.9375 -7.96875 C 13.007812 -7.96875 13.144531 -7.96875 13.34375 -7.96875 C 13.539062 -7.96875 13.722656 -7.988281 13.890625 -8.03125 Z M 13.890625 -12.734375 "/></g></g></g><g fill="#4d7feb" fill-opacity="1"><g transform="translate(119.92443, 53.415998)"><g><path d="M 2.109375 -16.203125 L 0.25 -16.203125 L 2.109375 -24.421875 L 10.328125 -24.421875 L 10.328125 -22.21875 C 10.828125 -23.019531 11.4375 -23.601562 12.15625 -23.96875 C 12.875 -24.34375 13.785156 -24.53125 14.890625 -24.53125 C 15.054688 -24.53125 15.222656 -24.53125 15.390625 -24.53125 C 15.566406 -24.53125 15.769531 -24.492188 16 -24.421875 L 14.1875 -16.203125 C 13.6875 -16.472656 13.253906 -16.609375 12.890625 -16.609375 C 12.484375 -16.609375 12.097656 -16.515625 11.734375 -16.328125 C 11.367188 -16.140625 11.085938 -15.894531 10.890625 -15.59375 C 10.785156 -15.425781 10.691406 -15.242188 10.609375 -15.046875 C 10.523438 -14.847656 10.460938 -14.585938 10.421875 -14.265625 C 10.390625 -13.953125 10.363281 -13.550781 10.34375 -13.0625 C 10.332031 -12.582031 10.328125 -11.972656 10.328125 -11.234375 L 10.328125 0 L 2.109375 0 Z M 2.109375 -16.203125 "/></g></g></g><g fill="#4d7feb" fill-opacity="1"><g transform="translate(135.673114, 53.415998)"><g><path d="M 2.953125 -0.796875 C 4.460938 -0.128906 5.707031 0.34375 6.6875 0.625 C 7.675781 0.90625 8.65625 1.046875 9.625 1.046875 C 10.96875 1.046875 11.90625 0.644531 12.4375 -0.15625 C 12.96875 -0.957031 13.234375 -2.359375 13.234375 -4.359375 L 13.234375 -8.03125 L 11.84375 -1.859375 L 8.21875 -1.859375 C 7.351562 -1.859375 6.519531 -2.015625 5.71875 -2.328125 C 4.914062 -2.648438 4.226562 -3.09375 3.65625 -3.65625 C 3.09375 -4.226562 2.691406 -4.984375 2.453125 -5.921875 C 2.222656 -6.859375 2.109375 -8.242188 2.109375 -10.078125 L 2.109375 -16.203125 L 0.25 -16.203125 L 2.109375 -24.421875 L 10.28125 -24.421875 L 10.28125 -14.84375 C 10.28125 -13.175781 10.296875 -12.015625 10.328125 -11.359375 C 10.359375 -10.703125 10.441406 -10.242188 10.578125 -9.984375 C 10.878906 -9.347656 11.566406 -9.03125 12.640625 -9.03125 C 12.703125 -9.03125 12.789062 -9.03125 12.90625 -9.03125 C 13.03125 -9.03125 13.140625 -9.046875 13.234375 -9.078125 L 13.234375 -24.421875 L 21.46875 -24.421875 L 21.46875 -2.203125 C 21.46875 -1.097656 21.441406 -0.15625 21.390625 0.625 C 21.335938 1.414062 21.234375 2.09375 21.078125 2.65625 C 20.929688 3.226562 20.738281 3.722656 20.5 4.140625 C 20.269531 4.554688 19.972656 4.960938 19.609375 5.359375 C 18.703125 6.296875 17.519531 7.003906 16.0625 7.484375 C 14.613281 7.972656 12.953125 8.21875 11.078125 8.21875 C 9.640625 8.21875 8.039062 8.066406 6.28125 7.765625 C 4.53125 7.472656 2.90625 7.078125 1.40625 6.578125 Z M 2.953125 -0.796875 "/></g></g></g><path stroke-linecap="butt" transform="matrix(0.289391, 0, 0, 0.289391, 162.357254, 2.483184)" fill="none" stroke-linejoin="miter" d="M 7.782276 91.589228 L 0.844215 91.589228 L 7.782276 60.394947 L 39.017052 60.394947 L 60.506145 104.237017 L 60.506145 60.394947 L 91.700426 60.394947 L 91.700426 175.993312 L 64.312631 175.993312 L 39.017052 126.455012 L 39.017052 175.993312 L 7.782276 175.993312 Z M 164.820037 175.156425 C 161.24302 176.060803 157.935968 176.708715 154.912377 177.100163 C 151.92928 177.518606 148.811202 177.734577 145.57164 177.734577 C 137.607717 177.734577 130.885626 176.384759 125.378371 173.671626 C 119.911611 170.931497 115.200748 166.639077 111.245783 160.767372 C 105.603546 152.331013 102.782427 142.909287 102.782427 132.502195 C 102.782427 126.495507 103.700303 120.893765 105.536055 115.696967 C 107.398803 110.486672 109.963456 105.964784 113.243512 102.158299 C 116.537067 98.351813 120.384047 95.355219 124.784452 93.155016 C 129.184856 90.941316 133.990206 89.847964 139.173505 89.847964 C 150.97091 89.847964 159.920199 95.166244 166.04837 105.802806 C 171.015699 114.711601 173.499363 124.889224 173.499363 136.30868 C 173.499363 136.538149 173.499363 137.078076 173.499363 137.955457 C 173.499363 138.832838 173.431872 139.723718 173.323886 140.628095 L 131.897989 140.628095 C 133.504272 145.0285 135.690976 148.160077 138.458102 150.022825 C 141.252224 151.858577 145.247684 152.762954 150.430983 152.762954 C 153.454574 152.762954 156.802121 152.452496 160.500621 151.845078 C 164.199121 151.183668 167.546668 150.292788 170.529764 149.131945 Z M 146.449021 123.822868 C 145.8686 119.786914 144.964222 116.884807 143.749386 115.103048 C 142.534551 113.307791 140.847279 112.403413 138.674073 112.403413 C 136.581856 112.403413 134.800097 113.442772 133.342294 115.534989 C 131.897989 117.586712 131.061103 120.353838 130.845132 123.822868 Z M 195.501387 131.611315 L 176.428467 91.589228 L 206.596886 91.589228 L 214.722787 112.065959 L 223.226637 91.589228 L 252.882126 91.589228 L 234.308638 131.611315 L 256.310662 175.993312 L 224.454971 175.993312 L 214.722787 150.022825 L 205.193076 175.993312 L 173.29689 175.993312 Z M 263.073248 119.854405 L 254.231943 119.854405 L 260.333118 91.589228 L 263.073248 91.589228 L 263.073248 81.006659 L 291.513901 73.731143 L 291.513901 91.589228 L 303.662258 91.589228 L 297.223629 119.854405 L 291.513901 119.854405 L 291.513901 175.993312 L 263.073248 175.993312 Z M 263.073248 119.854405 " stroke="#4d7feb" stroke-width="4.658056" stroke-opacity="1" stroke-miterlimit="4"/><path fill="#4d7feb" d="M 254.128906 16.882812 C 254.128906 13.132812 256.265625 12.230469 258.933594 14.898438 L 278.941406 34.910156 C 280.277344 36.246094 280.257812 38.425781 278.941406 39.742188 L 258.933594 59.753906 C 256.277344 62.40625 254.128906 61.515625 254.128906 57.769531 Z M 254.128906 16.882812 " fill-opacity="1" fill-rule="evenodd"/></svg>